<svg xmlns="http://www.w3.org/2000/svg" xmlns:xlink="http://www.w3.org/1999/xlink" version="1.1" x="0px" y="0px" viewBox="0 0 72 90" enable-background="new 0 0 72 72" xml:space="preserve"><path fill="#000000" d="M54.6,0.5H17.4c-1.4,0-2.6,1.1-2.6,2.6v65.9c0,1.4,1.1,2.6,2.6,2.6h37.3c1.4,0,2.6-1.1,2.6-2.6V3.1  C57.2,1.6,56,0.5,54.6,0.5z M28.3,3.3h15.5c0.7,0,1.2,0.5,1.2,1.2c0,0.7-0.5,1.2-1.2,1.2H28.3c-0.7,0-1.2-0.5-1.2-1.2  C27.1,3.9,27.6,3.3,28.3,3.3z M36,68.7c-2.4,0-4.3-1.9-4.3-4.3c0-2.4,1.9-4.3,4.3-4.3c2.4,0,4.3,1.9,4.3,4.3  C40.3,66.7,38.4,68.7,36,68.7z M52.8,55.2c0,1.1-0.9,1.9-1.9,1.9H21.2c-1.1,0-1.9-0.9-1.9-1.9V11.4c0-1.1,0.9-1.9,1.9-1.9h29.7  c1.1,0,1.9,0.9,1.9,1.9V55.2z"/><text x="0" y="87" fill="#000000" font-size="5px" font-weight="bold" font-family="'Helvetica Neue', Helvetica, Arial-Unicode, Arial, Sans-serif">Created by Creative Stall</text><text x="0" y="92" fill="#000000" font-size="5px" font-weight="bold" font-family="'Helvetica Neue', Helvetica, Arial-Unicode, Arial, Sans-serif">from the Noun Project</text></svg>