<svg xmlns="http://www.w3.org/2000/svg" xmlns:xlink="http://www.w3.org/1999/xlink" version="1.1" x="0px" y="0px" viewBox="0 0 48 60" enable-background="new 0 0 48 48" xml:space="preserve"><g><path fill="#000000" d="M46,10.8H2c-1.1,0-2,0.9-2,2v22.5c0,1.1,0.9,2,2,2h44c1.1,0,2-0.9,2-2V12.8C48,11.7,47.1,10.8,46,10.8z    M46,29.2c-3.3,0-6,2.7-6,6H8c0-3.3-2.7-6-6-6V18.8c3.3,0,6-2.7,6-6h32c0,3.3,2.7,6,6,6V29.2z"/><circle fill="#000000" cx="10.7" cy="24" r="3"/><circle fill="#000000" cx="37.3" cy="24" r="3"/><path fill="#000000" d="M25,22.6L25,22.6l-0.1-4c1.1,0.2,2.1,0.6,3,1.2l1.4-1.9c-1.4-0.9-2.8-1.5-4.4-1.6v-1.1h-1.3v1.1   c-2.6,0.1-4.6,1.7-4.6,4.2c0,1.9,0.7,3.3,4.6,4.2v4.1c-1.3-0.2-2.5-0.8-3.6-1.8l-1.5,1.8c1.5,1.3,3.3,2.1,5.2,2.3v1.5h1.3v-1.5   c2.7-0.1,4.8-1.6,4.8-4.3C29.7,25,28.9,23.5,25,22.6z M23.5,22.2c-1.3-0.4-2-0.8-2-1.9c0-1.1,0.9-1.6,2-1.7V22.2z M24.9,29v-3.8   c1.4,0.4,2.2,0.8,2.2,2C27.1,28.3,26,28.8,24.9,29z"/></g><text x="0" y="63" fill="#000000" font-size="5px" font-weight="bold" font-family="'Helvetica Neue', Helvetica, Arial-Unicode, Arial, Sans-serif">Created by Creative Stall</text><text x="0" y="68" fill="#000000" font-size="5px" font-weight="bold" font-family="'Helvetica Neue', Helvetica, Arial-Unicode, Arial, Sans-serif">from the Noun Project</text></svg>